<?xml version="1.0" encoding="utf-8"?>
<!-- Generator: Adobe Illustrator 17.0.0, SVG Export Plug-In . SVG Version: 6.00 Build 0)  -->
<!DOCTYPE svg PUBLIC "-//W3C//DTD SVG 1.1//EN" "http://www.w3.org/Graphics/SVG/1.1/DTD/svg11.dtd">
<svg version="1.1" id="Layer_1" xmlns="http://www.w3.org/2000/svg" xmlns:xlink="http://www.w3.org/1999/xlink" x="0px" y="0px"
	 width="504.876px" height="81.34px" viewBox="0 0 504.876 81.34" enable-background="new 0 0 504.876 81.34" xml:space="preserve">
<g>
	<path fill="#FFFFFF" d="M233.584,75.668l-0.148-30.943c-3.743,7.305-11.068,10.958-18.554,10.958
		c-12.382,0-22.361-8.019-22.361-22.808c0-14.165,9.444-22.184,21.383-22.629c8.552,0,16.057,4.365,19.532,11.048V10.226h3.809
		v65.442H233.584z M214.883,51.496c11.476,0,18.554-7.753,18.554-18.531c0-10.78-8.309-18.531-18.554-18.531
		c-9.977,0-17.996,6.06-17.996,18.441C196.887,45.26,204.905,51.496,214.883,51.496z"/>
	<path fill="#FFFFFF" d="M75.94,10.226L47.967,75.668h-4.633l9.267-21.321L34.96,10.226h4.721l10.245,26.66l5.167,12.739
		l5.079-12.829l11.048-26.57H75.94z"/>
	<path fill="#FFFFFF" d="M86.192,75.668V10.226h3.809v11.068c3.475-6.683,10.979-11.048,19.533-11.048
		c11.938,0.445,21.382,8.464,21.382,22.629c0,14.789-9.978,22.808-22.362,22.808c-7.483,0-14.812-3.653-18.553-10.958l-0.149,30.943
		H86.192z M126.55,32.875c0-12.382-8.019-18.441-17.996-18.441c-10.247,0-18.553,7.751-18.553,18.531
		c0,10.778,7.075,18.531,18.553,18.531C118.531,51.496,126.55,45.26,126.55,32.875z"/>
	<path fill="#FFFFFF" d="M139.563,32.875c0-13.184,9.978-22.717,22.361-22.717c12.385,0,23.433,7.415,21.739,24.608h-39.648
		c0.893,10.335,8.821,16.55,17.908,16.55c5.792,0,12.562-2.314,15.859-6.68l3.118,2.494c-4.276,5.611-11.938,8.464-18.977,8.464
		C149.541,55.595,139.563,46.863,139.563,32.875z M179.743,31.094c-0.09-10.868-7.216-16.928-17.818-16.928
		c-9.087,0-16.926,6.147-17.908,16.928H179.743z"/>
	<path fill="#FFFFFF" d="M286.326,55.217v-8.264c-3.385,6.057-10.213,8.176-16.36,8.264c-11.761,0-18.405-6.84-18.405-19.044V10.226
		h4.09v26.586c0,9.978,4.783,14.595,14.315,14.505c9.089-0.088,16.36-5.418,16.36-14.505V10.226h3.992v44.991H286.326z"/>
	<path fill="#FFFFFF" d="M302.686,33.053c0-13.985,9.109-22.827,21.493-22.827c12.383,0,21.453,8.842,21.453,22.827
		c0,13.988-9.07,22.164-21.453,22.164C311.796,55.217,302.686,47.041,302.686,33.053z M341.543,33.053
		c0-11.403-7.386-18.737-17.363-18.737c-9.979,0-17.402,7.334-17.402,18.737s7.423,18.074,17.402,18.074
		C334.157,51.127,341.543,44.456,341.543,33.053z"/>
	<path fill="#FFFFFF" d="M366,11.068V0l-4,0.445v10.623h-10v4h10v26.271c0,8.642,2.549,14.166,11.902,14.166
		c2.764,0,5.523-0.891,8.284-2.228l-1.515-3.565c-2.228,1.07-4.53,1.783-6.667,1.783c-6.86,0-8.005-4.188-8.005-10.157V15.068h25v41
		h4V14.316v-2.045v-1.202H366z"/>
	<path fill="#FFFFFF" d="M28.648,49.713c-2.226,1.07-4.104,1.783-6.245,1.783c-0.052,0-0.403-0.004-0.403-0.004V15.068h9v-4H14V0
		l-4,0.445v10.623H0v4h10v26.271c0,8.642,3.412,14.166,12.523,14.166c2.76,0,5.592-0.891,8.354-2.228L28.648,49.713z M14,42.946
		V15.068h4v35.915C14,49.969,14,47.402,14,42.946z"/>
	<path fill="#FFFFFF" d="M413.018,10.226v8.484c3.386-6.058,9.533-8.394,15.68-8.484c11.76,0,19.188,7.06,19.188,19.265v25.727
		h-4.09V29.58c0-9.979-5.744-15.352-15.276-15.265c-9.089,0.09-15.414,6.979-15.414,16.065v24.501h-4.076V10.226H413.018z"/>
	<path fill="#FFFFFF" d="M500.422,8.642l2.851,2.497l-4.544,5.344c3.12,3.386,6.148,7.216,6.148,15.146
		c0,7.661-4.454,16.748-14.076,19.065c7.929,1.781,13.721,6.505,13.721,14.521c0,10.513-10.513,16.125-22.185,16.125
		c-11.759,0-21.736-6.807-21.736-17.942h4.363c0,8.999,8.555,13.756,17.373,13.756c8.822,0,17.908-3.385,17.908-11.938
		c0-8.642-9.712-12.115-17.908-12.115c-13.274,0-22.717-7.75-22.717-21.471c0-14.256,12.116-21.471,22.717-21.471
		c4.456,0,10.158,1.426,13.543,3.83L500.422,8.642z M463.984,31.629c0,11.849,8.018,17.373,18.352,17.373
		c11.137,0,18.264-8.286,18.264-17.373c0-12.206-9.176-17.373-18.264-17.373C473.873,14.256,463.984,19.601,463.984,31.629z"/>
</g>
</svg>
